#!OML:ASF H:\BabyWalks\Project 1\Capture day 1\Session 1\baby.ASF
:FULLY-SPECIFIED
:DEGREES
292
root -20.6142 17.73 -2.57247 -103.078 85.0681 -113.756
lowerback 18.7577 2.97557 4.8973
upperback 5.55292 5.19873 1.25985
thorax -4.17375 2.6869 -2.55942
lowerneck -3.25533 -0.90209 9.16692
upperneck 4.45166 -1.45196 -4.41486
head 1.90979 -0.665595 -3.10555
rclavicle -5.96354e-014 3.61788e-014
rhumerus -39.0209 3.92559 -78.9146
rradius 51.8467
rwrist -8.20544
rhand -16.5105 -16.0771
rfingers 7.12502
rthumb 9.70768 -45.8334
lclavicle -5.96354e-014 3.61788e-014
lhumerus -50.9107 -2.92518 74.4076
lradius 46.1966
lwrist 2.61067
lhand -0.324078 9.75896
lfingers 7.12502
lthumb 25.2799 38.1039
rfemur 4.88272 -1.09184 27.7007
rtibia 22.3497
rfoot -10.9199 -5.47884
rtoes -27.4888
lfemur -35.7698 -1.1886 -14.5936
ltibia 33.2472
lfoot -14.7378 -3.74384
ltoes -7.14311
293
root -20.4184 17.704 -2.56435 -95.0308 85.0184 -105.502
lowerback 18.9102 3.03627 4.56365
upperback 5.63733 5.20914 1.01558
thorax -4.16882 2.69542 -2.64092
lowerneck -3.30349 -0.757096 9.11627
upperneck 4.37517 -1.28652 -3.84113
head 1.9056 -0.572053 -2.89434
rclavicle -3.77691e-014 2.82274e-014
rhumerus -38.8086 4.25442 -79.3713
rradius 52.2559
rwrist -8.53437
rhand -16.1394 -16.0111
rfingers 7.12502
rthumb 10.0657 -45.7504
lclavicle -3.77691e-014 2.82274e-014
lhumerus -50.8689 -2.97042 74.2992
lradius 46.0275
lwrist 2.70871
lhand -0.233453 9.88351
lfingers 7.12502
lthumb 25.3667 38.2162
rfemur 4.07657 -1.42106 27.4911
rtibia 25.2476
rfoot -9.90111 -3.99928
rtoes -27.3041
lfemur -35.3045 -0.852535 -14.3531
ltibia 34.0907
lfoot -14.3032 -3.76228
ltoes -5.68192
294
root -20.2254 17.6787 -2.55633 -86.9945 84.9526 -97.2248
lowerback 19.1193 3.08054 4.14598
upperback 5.73958 5.18403 0.741192
thorax -4.18138 2.68709 -2.70347
lowerneck -3.32925 -0.591709 9.05866
upperneck 4.24258 -1.09045 -3.261
head 1.87971 -0.464068 -2.6793
rclavicle -3.55825e-014 2.5842e-014
rhumerus -38.5565 4.53896 -79.8448
rradius 52.6164
rwrist -8.78135
rhand -15.7868 -16.0153
rfingers 7.12502
rthumb 10.4059 -45.7378
lclavicle -3.55825e-014 2.5842e-014
lhumerus -50.7641 -3.0002 74.1995
lradius 45.8214
lwrist 2.76401
lhand -0.175895 9.99799
lfingers 7.12502
lthumb 25.4219 38.3228
rfemur 3.10812 -1.67642 27.1654
rtibia 28.4132
rfoot -8.52593 -2.58404
rtoes -26.9089
lfemur -34.7521 -0.501201 -14.1839
ltibia 35.0478
lfoot -14.2928 -3.61144
ltoes -4.36575
295
root -20.0354 17.6542 -2.54772 -78.9416 84.9013 -88.9002
lowerback 19.379 3.11812 3.61761
upperback 5.85807 5.12896 0.424543
thorax -4.21016 2.66471 -2.74553
lowerneck -3.33889 -0.412049 8.9945
upperneck 4.06738 -0.871643 -2.67119
head 1.83695 -0.345473 -2.4601
rclavicle -1.49089e-015 4.65156e-014
rhumerus -38.2846 4.75189 -80.336
rradius 52.9415
rwrist -8.95342
rhand -15.4837 -16.0855
rfingers 7.12502
rthumb 10.6982 -45.7931
lclavicle -1.49089e-015 4.65156e-014
lhumerus -50.5759 -3.04375 74.1041
lradius 45.5606
lwrist 2.7627
lhand -0.138459 10.0698
lfingers 7.12502
lthumb 25.4577 38.3895
rfemur 1.98384 -1.83912 26.7028
rtibia 31.8085
rfoot -6.87459 -1.30213
rtoes -26.3335
lfemur -34.11 -0.125295 -14.131
ltibia 36.0244
lfoot -14.6818 -3.31887
ltoes -3.34037
296
root -19.8486 17.631 -2.53759 -70.6214 84.8984 -80.2869
lowerback 19.6745 3.15726 2.92933
upperback 5.99234 5.04338 0.0639218
thorax -4.25137 2.62814 -2.73981
lowerneck -3.33342 -0.221784 8.91559
upperneck 3.85873 -0.633617 -2.08248
head 1.78012 -0.218425 -2.23937
rclavicle 3.82164e-014 -7.10655e-015
rhumerus -38.0053 4.90258 -80.834
rradius 53.2546
rwrist -9.09181
rhand -15.2199 -16.2392
rfingers 7.12502
rthumb 10.9526 -45.9335
lclavicle 3.82164e-014 -7.10655e-015
lhumerus -50.292 -3.10066 74.0144
lradius 45.2374
lwrist 2.68701
lhand -0.0988144 10.0901
lfingers 7.12502
lthumb 25.4957 38.4044
rfemur 0.713686 -1.90475 26.0776
rtibia 35.3814
rfoot -5.09349 -0.187551
rtoes -25.679
lfemur -33.3763 0.289209 -14.2485
ltibia 36.9262
lfoot -15.383 -2.94648
ltoes -2.61976
297
root -19.6643 17.61 -2.52491 -61.7865 84.9508 -71.1464
lowerback 19.9914 3.20652 2.07869
upperback 6.13033 4.93528 -0.348812
thorax -4.30773 2.581 -2.69428
lowerneck -3.3061 -0.03449 8.83334
upperneck 3.63681 -0.393846 -1.49824
head 1.71359 -0.0911013 -2.02108
rclavicle -4.12478e-015 -1.47101e-014
rhumerus -37.7649 4.97503 -81.3472
rradius 53.5652
rwrist -9.18693
rhand -15.0535 -16.4568
rfingers 7.12502
rthumb 11.1131 -46.1425
lclavicle -4.12478e-015 -1.47101e-014
lhumerus -49.9108 -3.21749 73.9225
lradius 44.8502
lwrist 2.51702
lhand -0.0291336 10.0484
lfingers 7.12502
lthumb 25.5625 38.3532
rfemur -0.665913 -1.8914 25.2869
rtibia 39.03
rfoot -3.37188 0.74265
rtoes -24.9749
lfemur -32.5344 0.744842 -14.5625
ltibia 37.6386
lfoot -16.2729 -2.53275
ltoes -2.34061
298
root -19.4823 17.5911 -2.5091 -52.2727 85.0228 -61.3347
lowerback 20.3019 3.25975 1.07858
upperback 6.26788 4.79838 -0.794189
thorax -4.36859 2.52043 -2.59186
lowerneck -3.27122 0.153507 8.72984
upperneck 3.42026 -0.147907 -0.931965
head 1.64628 0.0384197 -1.80678
rclavicle -5.70512e-014 -2.24627e-014
rhumerus -37.5673 5.01365 -81.8662
rradius 53.881
rwrist -9.25569
rhand -14.9914 -16.7294
rfingers 7.12502
rthumb 11.173 -46.4119
lclavicle -5.70512e-014 -2.24627e-014
lhumerus -49.4305 -3.36143 73.8226
lradius 44.3973
lwrist 2.2261
lhand 0.098389 9.92904
lfingers 7.12502
lthumb 25.6846 38.2162
rfemur -2.16375 -1.82771 24.368
rtibia 42.7238
rfoot -1.98151 1.49735
rtoes -24.2299
lfemur -31.6307 1.23678 -15.0469
ltibia 38.1636
lfoot -17.2503 -2.20525
ltoes -2.5597
299
root -19.3003 17.5837 -2.48999 -42.2466 85.0599 -51.0458
lowerback 20.5826 3.31463 -0.00296298
upperback 6.38769 4.64198 -1.26297
thorax -4.43356 2.45056 -2.46199
lowerneck -3.2386 0.329449 8.61068
upperneck 3.23405 0.0850685 -0.382681
head 1.58711 0.161482 -1.59779
rclavicle 1.59028e-014 -5.96354e-015
rhumerus -37.4387 5.016 -82.3934
rradius 54.1959
rwrist -9.2789
rhand -15.0523 -17.0256
rfingers 7.12502
rthumb 11.1144 -46.7113
lclavicle 1.59028e-014 -5.96354e-015
lhumerus -48.8542 -3.54455 73.701
lradius 43.8855
lwrist 1.78344
lhand 0.303563 9.72626
lfingers 7.12502
lthumb 25.8811 37.9849
rfemur -3.75946 -1.74933 23.3804
rtibia 46.3518
rfoot -1.08516 2.04943
rtoes -23.5915
lfemur -30.6727 1.77444 -15.6565
ltibia 38.4717
lfoot -18.106 -2.02739
ltoes -2.57941
300
root -19.1224 17.5687 -2.46848 -32.4123 85.0265 -41.015
lowerback 20.8046 3.35448 -1.10132
upperback 6.48166 4.45889 -1.72469
thorax -4.4933 2.36763 -2.30531
lowerneck -3.21488 0.494761 8.46438
upperneck 3.08777 0.306081 0.135294
head 1.54054 0.27842 -1.39663
rclavicle -1.94809e-014 6.55989e-014
rhumerus -37.3737 5.02318 -82.9151
rradius 54.5017
rwrist -9.24448
rhand -15.2196 -17.3503
rfingers 7.12502
rthumb 10.953 -47.0446
lclavicle -1.94809e-014 6.55989e-014
lhumerus -48.1908 -3.73064 73.5577
lradius 43.3342
lwrist 1.17474
lhand 0.598061 9.45062
lfingers 7.12502
lthumb 26.1631 37.6678
rfemur -5.48091 -1.70349 22.397
rtibia 49.8777
rfoot -0.72884 2.35551
rtoes -22.985
lfemur -29.7671 2.34146 -16.3251
ltibia 38.6287
lfoot -18.8986 -1.92182
ltoes -2.7317
301
root -18.9462 17.5571 -2.44507 -23.7271 84.9161 -32.2179
lowerback 20.9619 3.3605 -2.12473
upperback 6.54264 4.24497 -2.15709
thorax -4.54731 2.26928 -2.1487
lowerneck -3.21303 0.649845 8.29909
upperneck 2.99046 0.513121 0.609923
head 1.51197 0.388514 -1.20844
rclavicle 2.10712e-014 -5.56597e-015
rhumerus -37.3689 5.05077 -83.4301
rradius 54.7802
rwrist -9.12076
rhand -15.478 -17.6884
rfingers 7.12502
rthumb 10.7037 -47.3957
lclavicle 2.10712e-014 -5.56597e-015
lhumerus -47.4429 -3.88423 73.3782
lradius 42.7577
lwrist 0.385718
lhand 0.967173 9.11391
lfingers 7.12502
lthumb 26.5164 37.2783
rfemur -7.30492 -1.72747 21.5058
rtibia 53.1973
rfoot -0.857829 2.38913
rtoes -22.3867
lfemur -28.9084 2.90554 -16.965
ltibia 38.649
lfoot -19.6287 -1.88902
ltoes -2.86413
302
root -18.7712 17.5495 -2.42107 -16.9284 84.767 -25.3977
lowerback 21.0601 3.31107 -2.99314
upperback 6.56825 3.98998 -2.53968
thorax -4.59817 2.15016 -2.01326
lowerneck -3.22933 0.79821 8.11317
upperneck 2.93697 0.710745 1.03206
head 1.49948 0.493732 -1.03531
rclavicle 4.6118e-014 7.95139e-016
rhumerus -37.4235 5.12899 -83.9363
rradius 55.0078
rwrist -8.83006
rhand -15.841 -17.9764
rfingers 7.12502
rthumb 10.3536 -47.7015
lclavicle 4.6118e-014 7.95139e-016
lhumerus -46.6163 -3.95791 73.1537
lradius 42.1717
lwrist -0.591319
lhand 1.39443 8.73445
lfingers 7.12502
lthumb 26.9253 36.8364
rfemur -9.22086 -1.84179 20.7784
rtibia 56.2646
rfoot -1.42662 2.15348
rtoes -21.8263
lfemur -28.1393 3.41001 -17.4993
ltibia 38.6083
lfoot -20.3218 -1.89066
ltoes -3.00111
303
root -18.5973 17.5462 -2.39742 -12.2442 84.6327 -20.7834
lowerback 21.1053 3.1969 -3.66451
upperback 6.56065 3.69165 -2.85526
thorax -4.64682 2.00877 -1.90379
lowerneck -3.26272 0.940017 7.91781
upperneck 2.91782 0.898833 1.38371
head 1.50028 0.593458 -0.884439
rclavicle -1.98785e-015 3.18055e-015
rhumerus -37.53 5.25878 -84.4204
rradius 55.1751
rwrist -8.35606
rhand -16.2472 -18.2317
rfingers 7.12502
rthumb 9.96169 -47.976
lclavicle -1.98785e-015 3.18055e-015
lhumerus -45.7199 -3.92269 72.8897
lradius 41.6048
lwrist -1.72625
lhand 1.83053 8.34038
lfingers 7.12502
lthumb 27.3425 36.3772
rfemur -11.2039 -2.05522 20.2576
rtibia 58.9973
rfoot -2.28625 1.70424
rtoes -21.2162
lfemur -27.4512 3.80969 -17.8818
ltibia 38.492
lfoot -20.9571 -1.89174
ltoes -3.15541
304
root -18.4238 17.5478 -2.37488 -9.43581 84.5585 -18.1236
lowerback 21.1112 3.01684 -4.12805
upperback 6.52665 3.35112 -3.10219
thorax -4.69433 1.84559 -1.82532
lowerneck -3.31305 1.0749 7.73028
upperneck 2.92164 1.07654 1.65042
head 1.51125 0.686772 -0.762919
rclavicle -1.98785e-015 1.35174e-014
rhumerus -37.6865 5.43328 -84.8752
rradius 55.2767
rwrist -7.69418
rhand -16.6778 -18.4328
rfingers 7.12502
rthumb 9.54618 -48.1965
lclavicle -1.98785e-015 1.35174e-014
lhumerus -44.7558 -3.76348 72.593
lradius 41.0803
lwrist -2.97955
lhand 2.21765 7.96026
lfingers 7.12502
lthumb 27.7127 35.9381
rfemur -13.2272 -2.36065 19.9454
rtibia 61.3544
rfoot -3.34202 1.11673
rtoes -20.5117
lfemur -26.8295 4.06435 -18.1081
ltibia 38.308
lfoot -21.5324 -1.87016
ltoes -3.32068
305
root -18.2501 17.5547 -2.35383 -8.17345 84.5665 -17.0679
lowerback 21.1005 2.7807 -4.3942
upperback 6.46874 2.97786 -3.28347
thorax -4.75207 1.6652 -1.7789
lowerneck -3.36819 1.19635 7.56546
upperneck 2.93849 1.23608 1.82582
head 1.52736 0.769407 -0.675058
rclavicle 1.03368e-014 1.74931e-014
rhumerus -37.9111 5.63438 -85.2926
rradius 55.3148
rwrist -6.84267
rhand -17.1201 -18.5516
rfingers 7.12502
rthumb 9.11947 -48.3344
lclavicle 1.03368e-014 1.74931e-014
lhumerus -43.7465 -3.50262 72.2842
lradius 40.6348
lwrist -4.28279
lhand 2.48025 7.60015
lfingers 7.12502
lthumb 27.9638 35.5374
rfemur -15.2585 -2.73991 19.8226
rtibia 63.311
rfoot -4.52062 0.459746
rtoes -19.763
lfemur -26.2463 4.15734 -18.1931
ltibia 38.0507
lfoot -22.0431 -1.80603
ltoes -3.52636
306
root -18.0751 17.5673 -2.33434 -8.07788 84.6508 -17.2058
lowerback 21.0933 2.50401 -4.50842
upperback 6.39877 2.58297 -3.39813
thorax -4.82142 1.47315 -1.74133
lowerneck -3.43161 1.30721 7.42302
upperneck 2.96048 1.38129 1.90209
head 1.54721 0.842745 -0.622879
rclavicle 6.52014e-014 -2.14687e-014
rhumerus -38.2016 5.86023 -85.6497
rradius 55.3164
rwrist -5.90005
rhand -17.5251 -18.5945
rfingers 7.12502
rthumb 8.72869 -48.394
lclavicle 6.52014e-014 -2.14687e-014
lhumerus -42.7145 -3.14464 71.993
lradius 40.3075
lwrist -5.56056
lhand 2.54475 7.29279
lfingers 7.12502
lthumb 28.0255 35.22
rfemur -17.2507 -3.16059 19.8518
rtibia 64.8472
rfoot -5.75238 -0.218007
rtoes -19.0287
lfemur -25.655 4.09172 -18.1674
ltibia 37.7056
lfoot -22.4818 -1.69112
ltoes -3.72627
